<?xml version="1.0" encoding="UTF-8"?>
<svg id="Layer_1" xmlns="http://www.w3.org/2000/svg" version="1.1" viewBox="0 0 128 128">
  <!-- Generator: Adobe Illustrator 29.7.1, SVG Export Plug-In . SVG Version: 2.1.1 Build 8)  -->
  <defs>
    <style>
      .st0 {
        fill: #8c3b43;
      }

      .st1 {
        fill: none;
        stroke: #fff;
        stroke-linecap: round;
        stroke-linejoin: round;
        stroke-width: 5px;
      }
    </style>
  </defs>
  <rect class="st0" width="128" height="128" rx="16" ry="16"/>
  <g>
    <path class="st1" d="M104.1,109.5c0-6.6-6.7-12-15-12s-3.1.2-4.5.6c-4.5-5.2-12-8.6-20.5-8.6s-16,3.4-20.5,8.6c-1.4-.4-2.9-.6-4.5-.6-8.3,0-15,5.4-15,12"/>
    <path class="st1" d="M64.1,89.5s2.9-40.8-24-52"/>
    <path class="st1" d="M63.9,85.9s-1-30.6,24.2-32.4"/>
    <path class="st1" d="M84.1,69.5s7,2.1,13.2-3.1c9.6-8,6.8-24.9,6.8-24.9,0,0-22.4-6-30,1.7-7.6,7.7-.9,16.5-.9,16.5"/>
    <path class="st1" d="M56.2,51.9s8.7-17.8-4-25.8c-12.7-7.9-28-.7-28-.7,0,0-3.2,20.1,5.5,28,6.2,5.7,14.5,4,14.5,4"/>
  </g>
</svg>